<?xml version="1.0" encoding="UTF-8"?>
<!DOCTYPE svg PUBLIC "-//W3C//DTD SVG 1.0//EN" "http://www.w3.org/TR/2001/REC-SVG-20010904/DTD/svg10.dtd">
<!-- Creator: CorelDRAW 2020 (64-Bit) -->
<svg xmlns="http://www.w3.org/2000/svg" xml:space="preserve" width="229.986mm" height="69.4381mm" version="1.0" shape-rendering="geometricPrecision" text-rendering="geometricPrecision" image-rendering="optimizeQuality" fill-rule="evenodd" clip-rule="evenodd"
viewBox="0 0 2313.308 698.442"
 xmlns:xlink="http://www.w3.org/1999/xlink"
 xmlns:xodm="http://www.corel.com/coreldraw/odm/2003">
 <g id="Ebene_x0020_1">
  <metadata id="CorelCorpID_0Corel-Layer"/>
  <path fill="#FEFEFE" d="M-0 0l698.442 0 0 698.442 -698.442 0 0 -698.442zm331.161 245.797l12.457 -4.912 12.748 -4.314 13.018 -3.696 13.269 -3.064 13.505 -2.412 13.721 -1.744 13.919 -1.058 14.095 -0.357 10.228 0 0 10.228 0 66.68 0 10.202 -10.202 0.026 -9.629 0.268 -9.494 0.744 -9.354 1.21 -9.202 1.662 -9.039 2.104 -8.866 2.534 -8.68 2.952 -8.483 3.359 -8.276 3.754 -8.058 4.139 -7.826 4.509 -7.585 4.871 -7.33 5.219 -7.063 5.555 -6.785 5.883 -6.496 6.196 -6.193 6.497 -5.88 6.787 -5.553 7.065 -5.216 7.332 -4.867 7.585 -4.507 7.829 -4.135 8.059 -3.75 8.276 -3.355 8.484 -2.948 8.68 -2.529 8.866 -2.099 9.039 -1.658 9.203 -1.204 9.353 -0.739 9.494 -0.262 9.629 -0.02 10.208 -10.208 0 -66.864 0 -10.228 0 0 -10.228 0.357 -14.102 1.06 -13.924 1.746 -13.725 2.416 -13.508 3.068 -13.271 3.702 -13.019 4.319 -12.746 4.918 -12.458 5.5 -12.151 6.065 -11.827 6.61 -11.485 7.142 -11.127 7.652 -10.752 8.147 -10.359 8.625 -9.949 9.086 -9.522 9.529 -9.08 9.956 -8.617 10.364 -8.141 10.757 -7.645 11.131 -7.133 11.491 -6.604 11.829 -6.057 12.154 -5.494zm3.204 -133.568l9.053 -2.275 9.132 -2.07 9.208 -1.864 9.284 -1.655 9.354 -1.442 9.425 -1.228 9.49 -1.011 9.558 -0.791 9.616 -0.567 9.676 -0.343 9.733 -0.115 10.228 0 0 10.228 0 66.958 0 10.214 -10.214 0.014 -9.818 0.162 -9.737 0.458 -9.653 0.747 -9.566 1.033 -9.473 1.315 -9.38 1.591 -9.281 1.862 -9.178 2.131 -9.074 2.395 -8.965 2.653 -8.85 2.908 -8.735 3.159 -8.614 3.405 -8.489 3.647 -8.362 3.883 -8.23 4.117 -8.094 4.345 -7.954 4.57 -7.811 4.789 -7.663 5.004 -7.512 5.215 -7.357 5.423 -7.198 5.624 -7.034 5.822 -6.868 6.015 -6.697 6.203 -6.52 6.388 -6.343 6.568 -6.16 6.744 -5.973 6.913 -5.782 7.081 -5.587 7.242 -18.413 24.564 0 -30.699 0 -99.576 0 -4.591 3.429 -3.051 6.82 -5.937 6.949 -5.789 7.078 -5.64 7.204 -5.486 7.326 -5.329 7.448 -5.172 7.566 -5.011 7.682 -4.847 7.795 -4.681 7.906 -4.511 8.015 -4.341 8.123 -4.166 8.226 -3.989 8.327 -3.809 8.427 -3.627 8.524 -3.441 8.618 -3.254 8.71 -3.064 8.798 -2.871 8.886 -2.675 8.971 -2.475zm133.471 112.057l87.431 0 0 87.125 -87.431 0 0 -87.125zm-1.619 -125.175l87.424 0 0 87.125 -87.424 0 0 -87.125zm-303.685 427.573l87.432 0 0 87.125 -87.432 0 0 -87.125z"/>
  <path fill="#FEFEFE" fill-rule="nonzero" d="M971.259 565.597l0 11.997c-3.896,5.081 -10.02,7.932 -16.795,7.932 -11.856,0 -21.481,-9.922 -21.481,-21.918 0,-12.081 9.625,-21.523 21.481,-21.523 6.45,0 12.109,2.852 16.089,7.466l6.252 -5.956c-5.462,-6.182 -13.507,-10.148 -22.341,-10.148 -16.71,0 -30.203,13.238 -30.203,30.16 0,16.837 13.492,30.556 30.203,30.556 10.514,0 19.815,-5.066 25.121,-13.323 0.226,-0.395 0.395,-0.875 0.395,-1.341l0 -13.902 -8.722 0zm69.452 27.719l9.908 0 -14.847 -21.142c8.439,-1.99 14.537,-8.99 14.537,-18.037 0,-10.712 -8.637,-19.589 -19.392,-19.589l-24.035 0c-2.527,0 -4.672,2.06 -4.672,4.601l0 54.167 8.723 0 0 -20.592 15.44 0 14.339 20.592zm-29.779 -50.046l19.984 0c5.899,0 10.67,4.996 10.67,10.867 0,5.801 -4.616,10.401 -10.67,10.401l-19.984 0 0 -21.269zm87.814 50.893c16.696,0 30.104,-13.563 30.104,-30.513 0,-17.12 -13.733,-30.203 -30.104,-30.203 -16.696,0 -30.189,13.238 -30.189,30.203 0,16.866 13.492,30.513 30.189,30.513zm0 -8.553c-11.855,0 -21.467,-9.95 -21.467,-21.961 -0.084,-12.109 9.612,-21.65 21.467,-21.65 11.77,0 21.467,9.54 21.381,21.65 0,12.095 -9.54,21.961 -21.381,21.961zm74.194 8.298c14.155,0 25.743,-11.502 25.743,-25.729l0 -33.632 -8.723 0 0 33.632c0,9.371 -7.635,16.922 -17.02,16.922 -9.47,0 -17.105,-7.551 -17.105,-16.922l0 -33.632 -8.723 0 0 33.632c0,14.227 11.587,25.729 25.828,25.729zm77.228 -59.36l-21.409 0c-2.527,0 -4.672,2.06 -4.672,4.601l0 54.167 8.723 0 0 -17.613 17.359 0c11.389,0 20.578,-8.878 20.578,-20.337 0,-11.39 -9.188,-20.817 -20.578,-20.817zm0 32.433l-17.359 0 0 -23.711 17.359 0c6.45,0 11.855,5.49 11.855,12.095 0,6.52 -5.25,11.616 -11.855,11.616zm113.472 -23.711l0 -8.722 -44.458 0 0 8.722 17.868 0 0 41.324 -17.868 0 0 8.722 44.458 0 0 -8.722 -17.868 0 0 -41.324 17.868 0zm64.187 -8.722l0 43.681 -33.759 -43.032c-0.861,-1.115 -2.13,-1.75 -3.557,-1.75 -2.54,0 -4.601,2.075 -4.601,4.615l0 55.254 8.723 0 0 -43.427 33.83 42.523c0.79,1.03 2.06,1.75 3.571,1.75 2.526,0 4.516,-2.075 4.516,-4.615l0 -55 -8.723 0zm77.836 0l-50.018 0 0 8.722 20.647 0 0 50.046 8.723 0 0 -50.046 20.648 0 0 -8.722zm65.866 8.722l0 -8.722 -40.505 0c-2.527,0 -4.672,2.06 -4.672,4.601l0 49.496c0,2.526 2.145,4.671 4.672,4.671l40.505 0 0 -8.722 -36.454 0 0 -16.344 34.069 0 0 -8.722 -34.069 0 0 -16.259 36.454 0zm62.354 50.046l9.908 0 -14.847 -21.142c8.439,-1.99 14.537,-8.99 14.537,-18.037 0,-10.712 -8.637,-19.589 -19.392,-19.589l-24.035 0c-2.527,0 -4.672,2.06 -4.672,4.601l0 54.167 8.723 0 0 -20.592 15.44 0 14.339 20.592zm-29.779 -50.046l19.984 0c5.899,0 10.67,4.996 10.67,10.867 0,5.801 -4.616,10.401 -10.67,10.401l-19.984 0 0 -21.269zm103.493 -8.722l0 43.681 -33.759 -43.032c-0.861,-1.115 -2.13,-1.75 -3.557,-1.75 -2.54,0 -4.601,2.075 -4.601,4.615l0 55.254 8.723 0 0 -43.427 33.83 42.523c0.79,1.03 2.06,1.75 3.571,1.75 2.526,0 4.516,-2.075 4.516,-4.615l0 -55 -8.723 0zm82.916 58.768l-24.077 -56.834c-0.72,-1.75 -2.216,-2.78 -4.051,-2.78 -1.821,0 -3.5,1.03 -4.205,2.78l-24.317 56.834 9.78 0 18.658 -43.498 18.432 43.498 9.78 0zm57.132 -58.768l-50.018 0 0 8.722 20.647 0 0 50.046 8.723 0 0 -50.046 20.648 0 0 -8.722zm63.553 8.722l0 -8.722 -44.458 0 0 8.722 17.868 0 0 41.324 -17.868 0 0 8.722 44.458 0 0 -8.722 -17.868 0 0 -41.324 17.868 0zm47.703 50.893c16.696,0 30.104,-13.563 30.104,-30.513 0,-17.12 -13.733,-30.203 -30.104,-30.203 -16.696,0 -30.189,13.238 -30.189,30.203 0,16.866 13.492,30.513 30.189,30.513zm0 -8.553c-11.855,0 -21.467,-9.95 -21.467,-21.961 -0.084,-12.109 9.612,-21.65 21.467,-21.65 11.77,0 21.467,9.54 21.381,21.65 0,12.095 -9.54,21.961 -21.381,21.961zm90.283 -51.062l0 43.681 -33.759 -43.032c-0.861,-1.115 -2.13,-1.75 -3.557,-1.75 -2.54,0 -4.601,2.075 -4.601,4.615l0 55.254 8.723 0 0 -43.427 33.83 42.523c0.79,1.03 2.06,1.75 3.571,1.75 2.526,0 4.516,-2.075 4.516,-4.615l0 -55 -8.723 0zm82.916 58.768l-24.077 -56.834c-0.72,-1.75 -2.216,-2.78 -4.051,-2.78 -1.821,0 -3.5,1.03 -4.205,2.78l-24.317 56.834 9.78 0 18.658 -43.498 18.432 43.498 9.78 0zm26.167 -8.722l0 -50.046 -8.723 0 0 54.097c0,2.526 2.145,4.671 4.672,4.671l39.39 0 0 -8.722 -35.339 0z"/>
  <path fill="#FEFEFE" d="M1039.06 170.451l0 44.507 -157.846 0 0 63.53 64.436 0 0 49.536 -64.436 0 0 113.45 -49.536 0 0 -250.198c0,-7.115 2.986,-13.563 7.737,-18.241 4.772,-4.7 11.337,-7.613 18.436,-7.613l181.209 0 0 5.029zm273.216 22.445c16.867,17.039 27.273,40.533 27.273,66.22 0,21.33 -7.095,40.316 -19.132,55.252 -10.958,13.596 -25.998,23.801 -43.49,29.331l68.663 97.776 -9.665 0 -47.466 0 -64.9 -93.2 -62.233 0 0 93.2 -49.536 0 0 -170.679 49.536 0 0 30.372 85.424 0c12.284,0 23.085,-4.617 30.812,-12.15 7.76,-7.565 12.451,-18.111 12.451,-29.901 0,-12.013 -4.907,-23.124 -12.832,-31.197 -7.811,-7.955 -18.561,-12.96 -30.432,-12.96l-85.424 0 0 26.739 -49.536 0 0 -50.421c0,-7.115 2.986,-13.563 7.737,-18.241 4.772,-4.7 11.337,-7.613 18.436,-7.613l108.787 0c25.642,0 48.773,10.549 65.527,27.474zm-284.011 85.593l0 49.536 -5.029 0 -48.489 0 0 -49.536 53.518 0zm747.131 -108.196l143.827 183.317 0 -105.284 49.536 0 0 171.064c0,7.12 -2.821,13.608 -7.43,18.319 -4.591,4.691 -10.944,7.599 -18.04,7.599 -4.068,0 -7.862,-0.954 -11.214,-2.597 -3.557,-1.742 -6.577,-4.257 -8.876,-7.231l-144.161 -181.207 0 187.203 -49.536 0 0 -255.116c0,-7.123 2.9,-13.604 7.583,-18.301 4.685,-4.7 11.147,-7.616 18.271,-7.616 3.977,0 7.772,0.898 11.197,2.584 3.409,1.677 6.417,4.137 8.842,7.268zm-224.162 7.006l111.914 264.176 -55.15 0 -80.14 -189.122 -81.123 189.122 -55.18 0 113.056 -264.235c1.975,-4.839 5.264,-8.702 9.313,-11.378 4.191,-2.769 9.176,-4.271 14.34,-4.271 5.176,0 9.911,1.475 13.883,4.201 3.941,2.707 7.076,6.617 9.086,11.507zm367.99 -11.876l49.536 0 0 53.806 -49.536 0 0 -5.029 0 -48.777zm259.413 136.939l134.672 139.113 -68.639 0c-39.48,-40.709 -78.856,-81.581 -118.498,-122.125l-0.138 -0.173c-0.955,-1.188 -1.814,-2.475 -2.559,-3.844l0 42.11 -49.536 0 0 -192.02 49.536 0 0 5.029 0 119.847c0.643,-1.152 1.362,-2.228 2.136,-3.221l0.196 -0.252c39.598,-40.355 79.002,-80.935 118.488,-121.403l66.837 0 -132.495 136.939zm-55.162 84.176l0 54.936 -5.029 0 -44.507 0 0 -54.936 49.536 0z"/>
 </g>
</svg>
